<svg width="106.78" height="16.13" xmlns="http://www.w3.org/2000/svg" viewBox="0 0 106.78 16.13"><path d="M101.11 16.13c-2.56 0-4.45-1.06-5.49-2.98l2.51-1.75c.69 1.1 1.69 1.6 3.03 1.6 1.47 0 2.46-.6 2.46-1.42 0-1.13-1.87-2.03-3.51-2.84-1.75-.87-3.68-1.82-3.68-4.29 0-2.68 2.29-4.45 5.16-4.45 2.13 0 3.89.88 4.6 2.75l-2.32 1.61c-.46-.92-1.37-1.3-2.24-1.3-1.17 0-2.04.67-2.04 1.47 0 .92 1.18 1.24 2.97 2.08 2.59 1.21 4.21 2.52 4.21 4.9 0 2.83-2.32 4.62-5.67 4.62Zm-14.23 0c-2.56 0-4.45-1.06-5.49-2.98l2.51-1.75c.69 1.1 1.69 1.6 3.03 1.6 1.47 0 2.46-.6 2.46-1.42 0-1.13-1.87-2.03-3.51-2.84-1.75-.87-3.68-1.82-3.68-4.29C82.2 1.77 84.49 0 87.35 0c2.13 0 3.9.88 4.6 2.75l-2.32 1.61c-.46-.92-1.37-1.3-2.24-1.3-1.17 0-2.04.67-2.04 1.47 0 .92 1.18 1.24 2.98 2.08 2.59 1.21 4.21 2.52 4.21 4.9 0 2.83-2.33 4.62-5.67 4.62ZM77.91 3.39h-6.28v3.03h5.39v3.11h-5.39v3.2h6.28v3.1h-9.42V.33h9.42V3.4ZM60.65.29h3.15v15.83h-.14l-9.27-8.95v8.68h-3.14V.04h.15l9.25 8.93zm-13.7 3.1h-6.28v3.03h5.39v3.11h-5.39v3.2h6.28v3.1h-9.42V.33h9.42V3.4ZM29.69.29h3.15v15.83h-.15l-9.27-8.95v8.68h-3.14V.04h.15l9.25 8.93V.29ZM8.11 16.13C3.65 16.13 0 12.51 0 8.1S3.65 0 8.12 0s8.13 3.63 8.13 8.09-3.66 8.03-8.14 8.03Zm0-3.15c2.73 0 4.96-2.2 4.96-4.89s-2.23-4.92-4.96-4.92-4.94 2.21-4.94 4.92 2.22 4.89 4.94 4.89" fill="#d6b635"/></svg>